<svg width="512" height="512" viewBox="0 0 512 512" fill="none" xmlns="http://www.w3.org/2000/svg">
  <rect width="512" height="512" rx="120" fill="#132238"/>
  <path d="M104 172C104 150.909 121.091 133.818 142.182 133.818H369.818C390.909 133.818 408 150.909 408 172V340C408 361.091 390.909 378.182 369.818 378.182H142.182C121.091 378.182 104 361.091 104 340V172Z" fill="#F5EDE0"/>
  <path d="M152 198C152 188.059 160.059 180 170 180H342C351.941 180 360 188.059 360 198V314C360 323.941 351.941 332 342 332H170C160.059 332 152 323.941 152 314V198Z" fill="#2F7F85"/>
  <path d="M184 232H327" stroke="#FDF7EF" stroke-width="18" stroke-linecap="round"/>
  <path d="M184 274H272" stroke="#FDF7EF" stroke-width="18" stroke-linecap="round"/>
  <path d="M319 267C336.673 267 351 252.673 351 235C351 217.327 336.673 203 319 203C301.327 203 287 217.327 287 235C287 252.673 301.327 267 319 267Z" fill="#D15B31"/>
  <path d="M319 251C327.837 251 335 243.837 335 235C335 226.163 327.837 219 319 219C310.163 219 303 226.163 303 235C303 243.837 310.163 251 319 251Z" fill="#132238"/>
  <path d="M257 360L309 308" stroke="#D15B31" stroke-width="24" stroke-linecap="round"/>
  <path d="M223 360C241.778 360 257 344.778 257 326C257 307.222 241.778 292 223 292C204.222 292 189 307.222 189 326C189 344.778 204.222 360 223 360Z" fill="#D15B31"/>
  <path d="M223 344C232.941 344 241 335.941 241 326C241 316.059 232.941 308 223 308C213.059 308 205 316.059 205 326C205 335.941 213.059 344 223 344Z" fill="#132238"/>
</svg>
